<?xml version="1.0" encoding="UTF-8"?> <svg xmlns="http://www.w3.org/2000/svg" xmlns:xlink="http://www.w3.org/1999/xlink" viewBox="0 0 142.82 161.57"><defs><style>.cls-1{fill:#f4901d;}.cls-2{fill:none;}.cls-3{clip-path:url(#clip-path);}.cls-4{fill:#fff;}.cls-5{fill:#231f20;}.cls-6{clip-path:url(#clip-path-2);}.cls-7{fill:url(#radial-gradient);}</style><clipPath id="clip-path"><rect class="cls-1" width="111.05" height="161.57"></rect></clipPath><clipPath id="clip-path-2"><path class="cls-2" d="M59.17,19.4c-2.66,1.48-3.29,2.2-3.5,6.54a132.75,132.75,0,0,0,.63,25C61.13,92.87,98.53,115,98.53,115a86.63,86.63,0,0,0,12.52-9.58V11.28a103.78,103.78,0,0,0-12.52-.73c-23.52,0-36.71,7.36-39.36,8.85"></path></clipPath><radialGradient id="radial-gradient" cx="4382.44" cy="8529.43" r="1" gradientTransform="matrix(96.71, 0, 0, -96.71, -423769.3, 824935.65)" gradientUnits="userSpaceOnUse"><stop offset="0" stop-color="#fac387"></stop><stop offset="0.27" stop-color="#f9b875"></stop><stop offset="0.55" stop-color="#f6a249"></stop><stop offset="1" stop-color="#f38f1d"></stop></radialGradient></defs><title>logo-full</title><g id="Layer_2" data-name="Layer 2"><g id="Layer_1-2" data-name="Layer 1"><rect class="cls-1" width="111.05" height="161.57"></rect><g class="cls-3"><path class="cls-1" d="M142.51,24.83c-.22-4.34-.85-5.06-3.5-6.55S123.17,9.44,99.64,9.44s-36.71,7.8-39.36,9.29c-.42.23-.77.44-1.1.65,2.69-1.5,15.88-8.83,39.35-8.83s36.71,7.36,39.37,8.85,3.28,2.2,3.5,6.53a133.14,133.14,0,0,1-.64,25c-1.95,17-9.23,30.7-17.22,41,8.41-10.32,16.3-24.38,18.33-42.15a132.94,132.94,0,0,0,.64-25"></path></g><rect class="cls-2" width="111.05" height="161.57"></rect><path class="cls-4" d="M26.87,144.29l-.23,4.85-.16.19A13.45,13.45,0,0,1,21,150.47c-7.81,0-11.56-5.5-11.56-11.74,0-5.69,2.88-12.19,11.18-12.19a15.09,15.09,0,0,1,5.92,1.21l.13.16-.29,4.49-.28.06a6.81,6.81,0,0,0-4.52-1.56c-5.22,0-6.18,4.91-6.18,7.7,0,4.62,2.56,7.38,6.21,7.38a7.75,7.75,0,0,0,5-1.82Z"></path><path class="cls-4" d="M42.16,132.1a5.66,5.66,0,0,1,1.12,2.64,18.81,18.81,0,0,1,.35,3.21c.13,4.88-.89,8.39-4.61,8.39-4.45,0-4.74-5.27-4.74-8.19,0-3.9.93-5.92,2.44-6.89a4.52,4.52,0,0,1,2.33-.65,4,4,0,0,1,3.11,1.49M47.22,130a7.72,7.72,0,0,0-1.92-1.82,11.21,11.21,0,0,0-6.12-1.66,11.29,11.29,0,0,0-5.73,1.37,10.23,10.23,0,0,0-4.87,7.41,19.59,19.59,0,0,0-.29,3.32c0,2.2.26,6.36,3.27,9.19a10.92,10.92,0,0,0,7.4,2.64,10.47,10.47,0,0,0,6.85-2.18c3.17-2.66,3.81-7.08,3.81-9.85,0-5.1-1.6-7.41-2.4-8.42"></path><path class="cls-4" d="M58.49,130.93c.45,0,.89,0,1.34,0,1.25,0,3.72,0,3.72,2.86a3.16,3.16,0,0,1-1.41,2.86,7.24,7.24,0,0,1-3.65.65ZM60,141c2.14,3.71,2.62,4.68,4.67,8.94l.26.16c1-.06,1.95-.12,2.95-.16s2-.06,3-.06l.2-.4a52.9,52.9,0,0,1-3.88-5.81c-1-1.66-1.53-2.54-2.33-4,1.43-.65,4.35-2,4.35-6.14,0-1.43-.38-4.39-3-5.79-1.67-.88-3.4-.91-7.14-.84l-2.24,0H52.91l-.15.19c.12,3.29.25,6.67.25,15.51,0,3,0,4.49-.13,7.19l.2.19c2.33-.1,2.85-.13,5.47-.1l.2-.19c-.26-3.77-.29-4.81-.32-8.69Z"></path><path class="cls-4" d="M91.51,144.29c0,1.49.07,3,.1,4.49l-.16.26a21.14,21.14,0,0,1-7.56,1.43,15.8,15.8,0,0,1-4.29-.55,10.08,10.08,0,0,1-5.48-3.61,12.24,12.24,0,0,1-2.25-7.51,14.62,14.62,0,0,1,1.64-6.86c2.53-4.36,6.53-5.4,10.19-5.4a15.82,15.82,0,0,1,6.82,1.5l.16.19c-.26,2-.32,2.47-.48,4.49l-.26.1a8.81,8.81,0,0,0-5.38-2c-4,0-6.76,2.8-6.76,7.93,0,2.45.9,7.26,5.86,7.26a10.33,10.33,0,0,0,2.41-.36,47,47,0,0,0-.26-6.93l.16-.19,5.45-.1.16.2c0,1.65-.07,3.28-.07,4.91Z"></path><path class="cls-4" d="M101.54,127.13q-.15,6.72-.16,13.46c0,4.71.06,6.21.23,9.19l-.2.2c-2.65,0-3.29,0-5.7.1l-.16-.19c.13-3.39.2-5.37.2-9.21,0-8.28-.1-9.94-.29-13.45l.12-.2c2.31,0,3,0,5.8-.1Z"></path><path class="cls-5" d="M98.53,115S61.13,92.87,56.3,50.9a132,132,0,0,1-.63-25c.2-4,.75-4.92,2.92-6.2C56.1,21.09,55.46,21.88,55.1,26a128.19,128.19,0,0,0-.31,24.74c3.38,42.85,41.71,66.71,41.71,66.71a97.44,97.44,0,0,0,15.21-12.67A87.84,87.84,0,0,1,98.53,115"></path><rect class="cls-2" width="111.05" height="161.57"></rect><g class="cls-6"><rect class="cls-7" x="54.85" y="10.55" width="56.2" height="104.41"></rect></g></g></g></svg> 